<svg id="Layer_1" data-name="Layer 1" xmlns="http://www.w3.org/2000/svg" viewBox="0 0 440.45 134.58"><defs><style>.cls-1{fill:#fff;}</style></defs><title>CARLILogo_white</title><path class="cls-1" d="M164.69 89.37c-8.69-7.63-11-17.56-11-26.16 0-6 1.86-16.49 10.37-24.29 6.38-5.85 14.81-9.4 28-9.4a87.63 87.63 0 0 1 12.86.89c3.37.44 6.21 1.24 8.87 1.51 1 .09 1.33.53 1.33 1.06 0 .71-.27 1.77-.44 4.88-.18 2.93-.09 7.8-.27 9.58-.09 1.33-.27 2-1.06 2s-.89-.71-.89-2a12.65 12.65 0 0 0-3.46-8.07c-2.93-3.1-9.84-5.5-18-5.5-7.71 0-12.77 2-16.67 5.5-6.47 5.94-8.16 14.36-8.16 23 0 21.1 16 31.57 27.93 31.57 7.89 0 12.68-.89 16.23-5a14.79 14.79 0 0 0 3-5.85c.27-1.42.44-1.77 1.15-1.77s.8.62.8 1.33a84.25 84.25 0 0 1-2 11.79 3.13 3.13 0 0 1-2.22 2.56c-3.55 1.42-10.29 2-16 2-12.06 0-22.3-2.62-30.37-9.63zM240.5 74.66a.76.76 0 0 0-.8.71L234.91 88a17.21 17.21 0 0 0-1.33 5.41c0 1.6.8 2.75 3.55 2.75h1.33c1.06 0 1.33.18 1.33.71 0 .71-.53.89-1.51.89-2.84 0-6.65-.27-9.4-.27-1 0-5.85.27-10.46.27-1.15 0-1.68-.18-1.68-.89 0-.53.35-.71 1.06-.71a26.81 26.81 0 0 0 2.75-.18c4.08-.53 5.76-3.55 7.54-8l22.26-55.68c1.06-2.57 1.6-3.55 2.48-3.55s1.33.8 2.22 2.84c2.13 4.88 16.32 41.05 22 54.53 3.37 8 5.94 9.22 7.8 9.67a19.44 19.44 0 0 0 3.72.35c.71 0 1.15.09 1.15.71s-.8.89-4.08.89-9.67 0-16.76-.18c-1.6-.09-2.66-.09-2.66-.71s.36-.71 1.24-.8a1.45 1.45 0 0 0 .8-2l-7.09-18.8a.85.85 0 0 0-.89-.62H240.5zm18.09-4.43c.44 0 .53-.27.44-.53l-8-21.9a.88.88 0 0 0-.44-.8.94.94 0 0 0-.53.8l-8.14 21.8c-.09.35 0 .62.35.62h16.32zM299 56.48c0-13.48 0-16-.18-18.8-.18-3-.89-4.43-3.81-5.05a18.25 18.25 0 0 0-3.46-.27c-1 0-1.51-.18-1.51-.8s.62-.8 2-.8c4.7 0 10.29.27 12.15.27 3 0 9.75-.27 12.5-.27 5.59 0 11.53.53 16.32 3.81a15.37 15.37 0 0 1 6 12.15c0 6.56-2.75 12.59-11.7 19.86 7.89 9.93 14 17.82 19.24 23.32 5 5.14 8.6 5.76 9.93 6a13.94 13.94 0 0 0 2.48.27c.71 0 1.06.27 1.06.71 0 .71-.62.89-1.68.89h-8.42c-5 0-7.18-.44-9.49-1.68-3.81-2-7.18-6.21-12.15-13-3.55-4.88-7.63-10.91-8.78-12.24a1.85 1.85 0 0 0-1.6-.62l-7.7-.23a.62.62 0 0 0-.71.71V72c0 8.25 0 15.25.44 19 .27 2.57.8 4.52 3.46 4.88a40.78 40.78 0 0 0 4.34.35c.71 0 1.06.27 1.06.71 0 .62-.62.89-1.77.89-5.14 0-11.7-.27-13-.27-1.68 0-7.27.27-10.82.27-1.15 0-1.77-.27-1.77-.89 0-.44.35-.71 1.42-.71a14.47 14.47 0 0 0 3.19-.35c1.77-.35 2.22-2.31 2.57-4.88.39-3.75.39-10.76.39-18.92v-15.6zm10.46 7c0 1 .18 1.33.8 1.6A23.38 23.38 0 0 0 317 66c3.55 0 4.7-.35 6.3-1.51 2.66-2 5.23-6 5.23-13.3 0-12.59-8.33-16.23-13.57-16.23a19.46 19.46 0 0 0-4.7.35 1 1 0 0 0-.8 1.24v27z"/><path class="cls-1" d="M377.05 72.08c0 11.35 0 17.47 1.86 19.06 1.51 1.33 3.81 2 10.73 2 4.7 0 8.16-.09 10.38-2.48a11.12 11.12 0 0 0 2.3-5.32c.09-.8.27-1.33 1-1.33s.71.44.71 1.51a70 70 0 0 1-1.33 10.2c-.53 2-1 2.39-5.59 2.39-6.38 0-11-.18-15-.27s-7.18-.27-10.82-.27c-1 0-2.93 0-5.05.09s-4.34.18-6.12.18c-1.15 0-1.77-.27-1.77-.89 0-.44.35-.71 1.42-.71a14.49 14.49 0 0 0 3.19-.35c1.77-.35 2.22-2.31 2.57-4.88.47-3.76.47-10.77.47-18.93v-15.6c0-13.48 0-16-.18-18.8-.18-3-.89-4.43-3.81-5.05a13.17 13.17 0 0 0-2.93-.27c-1 0-1.51-.18-1.51-.8s.62-.8 2-.8c4.17 0 9.75.27 12.15.27 2.13 0 8.6-.27 12.06-.27 1.24 0 1.86.18 1.86.8s-.53.8-1.6.8a23.63 23.63 0 0 0-3.46.27c-2.39.44-3.1 2-3.28 5.05-.18 2.84-.18 5.32-.18 18.8v15.6zM419.62 56.48c0-13.48 0-16-.18-18.8-.18-3-1.06-4.52-3-5a12.59 12.59 0 0 0-3.19-.35c-.89 0-1.42-.18-1.42-.89 0-.53.71-.71 2.13-.71 3.37 0 9 .27 11.53.27 2.22 0 7.45-.27 10.82-.27 1.15 0 1.86.18 1.86.71 0 .71-.53.89-1.42.89a15 15 0 0 0-2.66.27c-2.39.44-3.1 2-3.28 5.05-.18 2.84-.18 5.32-.18 18.8v15.63c0 8.6 0 15.61.36 19.42.27 2.39.89 4 3.55 4.34a37.36 37.36 0 0 0 4.52.35c1 0 1.42.27 1.42.71 0 .62-.71.89-1.68.89-5.85 0-11.44-.27-13.83-.27-2 0-7.63.27-11.17.27-1.15 0-1.77-.27-1.77-.89 0-.44.35-.71 1.42-.71a14.49 14.49 0 0 0 3.19-.35c1.77-.35 2.3-1.86 2.57-4.43.44-3.72.44-10.73.44-19.33v-15.6zM43.52 52.18l38.86-38.86 8.66 8.66-38.86 38.86 6.5 6.5 45.35-45.36L82.38.33 37.02 45.69l6.5 6.49zM30.53 82.5l-8.78 8.77-8.66-8.66 8.78-8.78-6.5-6.49L.1 82.61l21.65 21.65 15.27-15.27-6.49-6.49z"/><path class="cls-1" d="M52.18 30.53l-8.88-8.88 8.67-8.66 8.87 8.88 6.5-6.5L51.97 0 30.31 21.65l15.38 15.37 6.49-6.49zM88.99 37.02l-6.5 6.5 38.76 38.76-8.66 8.66-38.76-38.76-6.49 6.5 45.25 45.25 21.66-21.65-45.26-45.26z"/><path class="cls-1" d="M104.15 52.18l8.54-8.55 8.66 8.67-8.54 8.54 6.49 6.5 15.04-15.04-21.65-21.66-15.04 15.05 6.5 6.49zM91.16 82.49l-39.1 39.09-8.66-8.66 39.1-39.09-6.5-6.49-45.59 45.58 21.65 21.66 45.59-45.59-6.49-6.5z"/><path class="cls-1" d="M82.5 104.15l8.44 8.44-8.66 8.66-8.45-8.44-6.49 6.49 14.94 14.95 21.65-21.66-14.94-14.94-6.49 6.5zM52.18 91.16L12.99 51.97l8.66-8.67 39.19 39.19 6.5-6.49-45.69-45.69L0 51.97l45.69 45.68 6.49-6.49z"/></svg>